<svg width="148" height="42" viewBox="0 0 148 42" fill="none" xmlns="http://www.w3.org/2000/svg">
<path d="M20.6471 0H0V2.99371C3.93832 3.15357 5.30438 3.7821 5.30438 7.09189V33.8899C5.30438 37.1997 3.93832 37.8283 0 37.9881V40.9818H20.9124V37.9881C16.0766 37.7774 13.7115 37.1997 13.7115 33.8899V3.52051H18.2311C24.5891 3.52051 27.7427 6.98653 27.7427 12.24C27.7427 18.3365 24.8543 21.1739 18.4418 21.1739H17.41V24.5382H21.1194C31.7863 24.5382 36.6184 19.4409 36.6184 12.0875C36.622 5.5696 32.1024 0 20.6471 0Z" fill="#1CBD83"/>
<path d="M49.2567 15.6038C53.0424 15.6038 54.8771 18.4413 54.9316 22.3288H46.7643V25.2171H62.3905V23.4841C62.3905 17.0716 58.2923 12.0833 50.412 12.0833C42.5317 12.0833 35.8032 18.3359 35.8032 27.7385C35.8032 35.9894 41.3183 41.5045 49.6745 41.5045C57.2387 41.5045 61.0208 36.9849 62.3905 32.5706L60.5012 31.626C58.7137 33.7804 56.1415 35.4626 52.4102 35.4626C39.5417 35.4626 41.0494 15.6002 49.2567 15.6002V15.6038Z" fill="#1CBD83"/>
<path d="M86.4925 21.7015C86.4925 18.5988 85.0211 17.4435 82.0274 17.4435C79.5569 17.4435 76.8247 18.4426 74.9864 19.5979V35.2567C74.9864 37.6728 76.3016 37.9344 78.7176 38.2504V40.9826H63.5347V38.2504C65.9508 37.9344 67.2115 37.6728 67.2115 35.2567V18.7586L63.7963 16.2917V14.715L73.3042 11.9828H75.248L74.9864 17.24C77.2971 14.7186 81.0828 12.0918 85.4425 12.0918C90.6452 12.0918 94.2711 14.7186 94.2711 20.7096V35.264C94.2711 37.68 95.5826 37.9416 98.0023 38.2577V40.9898H82.8158V38.2577C85.2318 37.9416 86.4962 37.68 86.4962 35.264V21.7015H86.4925Z" fill="#1CBD83"/>
<path d="M116.39 35.6122C115.155 36.1245 113.803 36.5169 112.473 36.5169C109.741 36.5169 108.535 35.2562 108.535 32.0009V16.026H116.415V12.6108H108.535V6.30734H106.014C103.227 9.61713 99.9718 12.2439 96.7165 13.6608V16.026H100.76V33.4687C100.76 39.4597 104.597 41.5088 108.8 41.5088C112.488 41.5088 115.213 39.9938 117.149 38.1881C116.844 37.4216 116.579 36.5678 116.394 35.6122H116.39Z" fill="#1CBD83"/>
<path d="M147.277 36.5169C146.489 36.7276 145.439 36.8329 144.966 36.8329C143.39 36.8329 142.917 35.5722 142.917 33.2579V22.9107C142.917 14.5545 138.347 12.0876 131.099 12.0876C124.584 12.0876 119.589 14.609 119.589 19.3357C119.589 20.8072 120.221 21.9116 121.376 22.5438L126.946 21.8063C126.735 20.5964 126.579 19.5465 126.579 18.7036C126.579 16.4438 127.789 15.1831 130.099 15.1831C133.409 15.1831 135.142 17.5991 135.142 21.8535V34.515C133.409 35.7757 131.833 36.5641 129.834 36.5641C127.524 36.5641 125.998 34.9873 125.998 32.4659C125.998 30.5222 126.786 29.5231 128.574 28.84L132.61 27.4849V24.6292L125.42 26.8454C114.986 29.9627 117.58 41.3998 125.892 41.3998C130.15 41.3998 133.355 38.9838 135.299 36.8293C136.243 39.6668 137.871 41.5052 140.97 41.5052C143.386 41.5052 145.962 40.4515 147.804 38.6677L147.277 36.5132V36.5169Z" fill="#1CBD83"/>
</svg>
