<svg width="57" height="17" viewBox="0 0 57 17" fill="none" xmlns="http://www.w3.org/2000/svg">
<path d="M7.95869 0.0950317H0V1.24899C1.51807 1.31061 2.04464 1.55289 2.04464 2.82869V13.1583C2.04464 14.4341 1.51807 14.6764 0 14.738V15.892H8.06092V14.738C6.19694 14.6568 5.28525 14.4341 5.28525 13.1583V1.45206H7.0274C9.47816 1.45206 10.6937 2.78807 10.6937 4.81311C10.6937 7.16304 9.5804 8.25678 7.10862 8.25678H6.7109V9.55359H8.14075C12.2524 9.55359 14.115 7.58877 14.115 4.75429C14.1164 2.2419 12.3743 0.0950317 7.95869 0.0950317Z" fill="#1CBD83"/>
<path d="M18.9871 6.10992C20.4464 6.10992 21.1536 7.20366 21.1746 8.70213H18.0264V9.81548H24.0497V9.14747C24.0497 6.67569 22.47 4.75289 19.4324 4.75289C16.3949 4.75289 13.8013 7.16305 13.8013 10.7874C13.8013 13.9678 15.9272 16.0936 19.1482 16.0936C22.0639 16.0936 23.5217 14.3515 24.0497 12.65L23.3215 12.2858C22.6324 13.1163 21.6409 13.7647 20.2027 13.7647C15.2423 13.7647 15.8235 6.10852 18.9871 6.10852V6.10992Z" fill="#1CBD83"/>
<path d="M33.3402 8.45984C33.3402 7.26387 32.773 6.81853 31.6191 6.81853C30.6668 6.81853 29.6137 7.20365 28.905 7.64899V13.6849C28.905 14.6162 29.412 14.717 30.3433 14.8388V15.892H24.4909V14.8388C25.4221 14.717 25.9081 14.6162 25.9081 13.6849V7.32549L24.5917 6.37459V5.7668L28.2566 4.71367H29.0059L28.905 6.7401C29.7957 5.7682 31.255 4.75568 32.9355 4.75568C34.9409 4.75568 36.3386 5.7682 36.3386 8.07752V13.6877C36.3386 14.619 36.8441 14.7198 37.7768 14.8416V15.8948H31.923V14.8416C32.8543 14.7198 33.3416 14.619 33.3416 13.6877V8.45984H33.3402Z" fill="#1CBD83"/>
<path d="M44.8644 13.8221C44.3883 14.0196 43.8673 14.1708 43.3548 14.1708C42.3016 14.1708 41.8367 13.6849 41.8367 12.4301V6.27236H44.8742V4.95595H41.8367V2.52619H40.8648C39.7907 3.80199 38.5359 4.81451 37.2811 5.36068V6.27236H38.8398V12.9959C38.8398 15.3052 40.3186 16.095 41.9389 16.095C43.3604 16.095 44.4107 15.5111 45.1571 14.815C45.0395 14.5195 44.9373 14.1904 44.8658 13.8221H44.8644Z" fill="#1CBD83"/>
<path d="M56.7696 14.1708C56.4657 14.2521 56.0609 14.2927 55.8789 14.2927C55.2711 14.2927 55.089 13.8067 55.089 12.9146V8.9262C55.089 5.70519 53.3273 4.75429 50.5334 4.75429C48.0224 4.75429 46.0968 5.7262 46.0968 7.54817C46.0968 8.11534 46.3405 8.54108 46.7858 8.78475L48.9327 8.50046C48.8515 8.03412 48.7913 7.62939 48.7913 7.30449C48.7913 6.43342 49.2576 5.94747 50.1483 5.94747C51.4241 5.94747 52.0921 6.87876 52.0921 8.51867V13.3992C51.4241 13.8851 50.8163 14.189 50.046 14.189C49.1554 14.189 48.5672 13.5813 48.5672 12.6093C48.5672 11.8601 48.8711 11.475 49.5601 11.2117L51.116 10.6893V9.5886L48.3445 10.4429C44.3225 11.6444 45.3224 16.053 48.5266 16.053C50.1679 16.053 51.4031 15.1217 52.1523 14.2913C52.5164 15.385 53.1438 16.0936 54.3384 16.0936C55.2697 16.0936 56.2626 15.6875 56.9726 14.9999L56.7696 14.1694V14.1708Z" fill="#1CBD83"/>
</svg>
